<svg width="306" height="70" viewBox="0 0 306 70" fill="none" xmlns="http://www.w3.org/2000/svg">
<path d="M24.9072 70C11.1734 70 0 58.8184 0 45.0742V24.9254C0 11.1816 11.1734 -1.98344e-06 24.9072 -1.98344e-06C38.6411 -1.98344e-06 49.8144 11.1816 49.8144 24.9254V45.0742C49.8144 45.858 49.1797 46.4935 48.3969 46.4935C47.614 46.4935 46.9793 45.858 46.9793 45.0742V24.9254C46.9793 12.7466 37.0778 2.83849 24.9072 2.83849C12.7366 2.83849 2.83518 12.7466 2.83518 24.9254V45.0742C2.83518 57.253 12.7366 67.1615 24.9072 67.1615C25.69 67.1615 26.3248 67.797 26.3248 68.5808C26.3248 69.3645 25.69 70 24.9072 70Z" fill="#0074EE"/>
<path d="M48.3969 48.462C50.387 48.462 52.0001 46.8471 52.0001 44.8547C52.0001 42.8624 50.387 41.2474 48.3969 41.2474C46.4069 41.2474 44.7938 42.8624 44.7938 44.8547C44.7938 46.8471 46.4069 48.462 48.3969 48.462Z" fill="#0074EE"/>
<path d="M24.9074 61.8423C15.4244 61.8423 7.70886 54.121 7.70886 44.6305V25.3693C7.70886 24.5856 8.34364 23.95 9.12646 23.95C9.90927 23.95 10.544 24.5856 10.544 25.3693V44.6305C10.544 52.556 16.9876 59.0038 24.9074 59.0038C32.8273 59.0038 39.2708 52.556 39.2708 44.6305V25.3693C39.2708 17.4438 32.8273 10.996 24.9074 10.996C24.1246 10.996 23.4898 10.3609 23.4898 9.57678C23.4898 8.79305 24.1246 8.15753 24.9074 8.15753C34.3905 8.15753 42.106 15.8788 42.106 25.3693V44.6305C42.106 54.121 34.3905 61.8423 24.9074 61.8423Z" fill="#A40DEE"/>
<path d="M9.12631 28.7526C11.1163 28.7526 12.7294 27.1376 12.7294 25.1453C12.7294 23.1529 11.1163 21.5379 9.12631 21.5379C7.13629 21.5379 5.52319 23.1529 5.52319 25.1453C5.52319 27.1376 7.13629 28.7526 9.12631 28.7526Z" fill="#A40DEE"/>
<path d="M32.882 33.8199H25.0088V36.6584H32.882C33.6648 36.6584 34.2996 36.0229 34.2996 35.2391C34.2996 34.4554 33.6648 33.8199 32.882 33.8199Z" fill="#00DED3"/>
<path d="M24.9074 52.9619C19.7286 52.9619 15.5153 48.7452 15.5153 43.562V26.4376C15.5153 21.2548 19.7286 17.0382 24.9074 17.0382C25.6902 17.0382 26.325 17.6733 26.325 18.4574C26.325 19.2411 25.6902 19.8767 24.9074 19.8767C21.2918 19.8767 18.3504 22.8199 18.3504 26.4376V43.562C18.3504 47.1798 21.2918 50.1234 24.9074 50.1234C28.523 50.1234 31.4644 47.1798 31.4644 43.562V35.2394C31.4644 34.4553 32.0992 33.8202 32.882 33.8202C33.6648 33.8202 34.2996 34.4553 34.2996 35.2394V43.562C34.2996 48.7452 30.0862 52.9619 24.9074 52.9619Z" fill="#00DED3"/>
<path d="M24.9074 22.0645C26.8975 22.0645 28.5105 20.4495 28.5105 18.4572C28.5105 16.4649 26.8975 14.8499 24.9074 14.8499C22.9174 14.8499 21.3043 16.4649 21.3043 18.4572C21.3043 20.4495 22.9174 22.0645 24.9074 22.0645Z" fill="#00DED3"/>
<path d="M24.9074 38.6072C26.8975 38.6072 28.5105 36.9922 28.5105 34.9999C28.5105 33.0075 26.8975 31.3926 24.9074 31.3926C22.9174 31.3926 21.3043 33.0075 21.3043 34.9999C21.3043 36.9922 22.9174 38.6072 24.9074 38.6072Z" fill="#00DED3"/>
<path d="M88.344 47.86C86.424 47.86 84.648 47.548 83.016 46.924C81.384 46.276 79.956 45.376 78.732 44.224C77.508 43.048 76.56 41.68 75.888 40.12C75.24 38.536 74.916 36.796 74.916 34.9C74.916 33.052 75.252 31.36 75.924 29.824C76.596 28.264 77.532 26.908 78.732 25.756C79.956 24.604 81.372 23.716 82.98 23.092C84.612 22.444 86.364 22.12 88.236 22.12C89.556 22.12 90.852 22.312 92.124 22.696C93.396 23.08 94.56 23.596 95.616 24.244C96.696 24.868 97.572 25.576 98.244 26.368L96.408 28.6C95.736 27.832 94.956 27.184 94.068 26.656C93.204 26.104 92.268 25.672 91.26 25.36C90.252 25.048 89.208 24.892 88.128 24.892C86.712 24.892 85.368 25.132 84.096 25.612C82.824 26.092 81.72 26.788 80.784 27.7C79.872 28.588 79.152 29.644 78.624 30.868C78.096 32.092 77.832 33.436 77.832 34.9C77.832 36.412 78.096 37.804 78.624 39.076C79.176 40.324 79.932 41.392 80.892 42.28C81.876 43.168 83.016 43.864 84.312 44.368C85.608 44.848 87.024 45.088 88.56 45.088C89.664 45.088 90.708 44.944 91.692 44.656C92.7 44.344 93.6 43.948 94.392 43.468C95.208 42.964 95.904 42.4 96.48 41.776L97.884 44.152C97.284 44.8 96.48 45.412 95.472 45.988C94.464 46.54 93.336 46.996 92.088 47.356C90.864 47.692 89.616 47.86 88.344 47.86ZM115.304 47.86C113.336 47.86 111.536 47.548 109.904 46.924C108.272 46.276 106.844 45.376 105.62 44.224C104.396 43.048 103.448 41.68 102.776 40.12C102.128 38.536 101.804 36.82 101.804 34.972C101.804 33.124 102.128 31.42 102.776 29.86C103.448 28.276 104.396 26.896 105.62 25.72C106.844 24.544 108.272 23.644 109.904 23.02C111.536 22.372 113.336 22.048 115.304 22.048C117.272 22.048 119.072 22.372 120.704 23.02C122.36 23.644 123.788 24.544 124.988 25.72C126.212 26.896 127.16 28.276 127.832 29.86C128.504 31.42 128.84 33.124 128.84 34.972C128.84 36.796 128.504 38.5 127.832 40.084C127.16 41.644 126.212 43.012 124.988 44.188C123.788 45.364 122.36 46.276 120.704 46.924C119.072 47.548 117.272 47.86 115.304 47.86ZM115.304 45.088C116.84 45.088 118.256 44.848 119.552 44.368C120.872 43.864 122 43.156 122.936 42.244C123.896 41.332 124.628 40.264 125.132 39.04C125.66 37.792 125.924 36.436 125.924 34.972C125.924 33.484 125.66 32.128 125.132 30.904C124.628 29.656 123.896 28.576 122.936 27.664C122 26.752 120.872 26.044 119.552 25.54C118.256 25.036 116.84 24.784 115.304 24.784C113.768 24.784 112.34 25.036 111.02 25.54C109.724 26.044 108.596 26.764 107.636 27.7C106.7 28.612 105.98 29.692 105.476 30.94C104.972 32.164 104.72 33.508 104.72 34.972C104.72 36.436 104.972 37.78 105.476 39.004C105.98 40.228 106.7 41.308 107.636 42.244C108.596 43.156 109.724 43.864 111.02 44.368C112.34 44.848 113.768 45.088 115.304 45.088ZM134.891 47.5V22.3H137.699V44.764H151.811V47.5H134.891ZM168.375 47.86C166.407 47.86 164.607 47.548 162.975 46.924C161.343 46.276 159.915 45.376 158.691 44.224C157.467 43.048 156.519 41.68 155.847 40.12C155.199 38.536 154.875 36.82 154.875 34.972C154.875 33.124 155.199 31.42 155.847 29.86C156.519 28.276 157.467 26.896 158.691 25.72C159.915 24.544 161.343 23.644 162.975 23.02C164.607 22.372 166.407 22.048 168.375 22.048C170.343 22.048 172.143 22.372 173.775 23.02C175.431 23.644 176.859 24.544 178.059 25.72C179.283 26.896 180.231 28.276 180.903 29.86C181.575 31.42 181.911 33.124 181.911 34.972C181.911 36.796 181.575 38.5 180.903 40.084C180.231 41.644 179.283 43.012 178.059 44.188C176.859 45.364 175.431 46.276 173.775 46.924C172.143 47.548 170.343 47.86 168.375 47.86ZM168.375 45.088C169.911 45.088 171.327 44.848 172.623 44.368C173.943 43.864 175.071 43.156 176.007 42.244C176.967 41.332 177.699 40.264 178.203 39.04C178.731 37.792 178.995 36.436 178.995 34.972C178.995 33.484 178.731 32.128 178.203 30.904C177.699 29.656 176.967 28.576 176.007 27.664C175.071 26.752 173.943 26.044 172.623 25.54C171.327 25.036 169.911 24.784 168.375 24.784C166.839 24.784 165.411 25.036 164.091 25.54C162.795 26.044 161.667 26.764 160.707 27.7C159.771 28.612 159.051 29.692 158.547 30.94C158.043 32.164 157.791 33.508 157.791 34.972C157.791 36.436 158.043 37.78 158.547 39.004C159.051 40.228 159.771 41.308 160.707 42.244C161.667 43.156 162.795 43.864 164.091 44.368C165.411 44.848 166.839 45.088 168.375 45.088ZM187.962 47.5V22.3H199.41C200.898 22.3 202.242 22.636 203.442 23.308C204.642 23.98 205.59 24.904 206.286 26.08C206.982 27.232 207.33 28.54 207.33 30.004C207.33 31.444 206.97 32.74 206.25 33.892C205.554 35.044 204.594 35.956 203.37 36.628C202.146 37.3 200.79 37.636 199.302 37.636H190.77V47.5H187.962ZM205.134 47.5L197.934 36.412L200.706 35.512L208.554 47.5H205.134ZM190.77 34.9H199.302C200.31 34.9 201.186 34.696 201.93 34.288C202.698 33.856 203.298 33.268 203.73 32.524C204.162 31.78 204.378 30.94 204.378 30.004C204.378 29.068 204.138 28.228 203.658 27.484C203.202 26.716 202.554 26.116 201.714 25.684C200.898 25.252 199.95 25.036 198.87 25.036H190.77V34.9ZM222.923 47.86C221.459 47.86 220.091 47.68 218.819 47.32C217.571 46.96 216.419 46.42 215.363 45.7C214.307 44.98 213.359 44.092 212.519 43.036L214.391 40.804C215.663 42.388 216.995 43.528 218.387 44.224C219.803 44.896 221.363 45.232 223.067 45.232C224.339 45.232 225.503 45.052 226.559 44.692C227.615 44.332 228.443 43.804 229.043 43.108C229.667 42.412 229.979 41.608 229.979 40.696C229.979 40.072 229.835 39.544 229.547 39.112C229.259 38.656 228.863 38.272 228.359 37.96C227.879 37.648 227.315 37.384 226.667 37.168C226.019 36.928 225.347 36.736 224.651 36.592C223.955 36.424 223.247 36.268 222.527 36.124C221.207 35.86 220.007 35.548 218.927 35.188C217.847 34.828 216.911 34.372 216.119 33.82C215.351 33.268 214.763 32.608 214.355 31.84C213.947 31.072 213.743 30.136 213.743 29.032C213.743 28 213.971 27.052 214.427 26.188C214.907 25.324 215.567 24.592 216.407 23.992C217.247 23.368 218.231 22.888 219.359 22.552C220.487 22.216 221.699 22.048 222.995 22.048C224.435 22.048 225.731 22.228 226.883 22.588C228.035 22.924 229.055 23.428 229.943 24.1C230.831 24.748 231.599 25.552 232.247 26.512L230.339 28.528C229.739 27.712 229.067 27.016 228.323 26.44C227.579 25.84 226.751 25.396 225.839 25.108C224.951 24.796 223.991 24.64 222.959 24.64C221.759 24.64 220.679 24.82 219.719 25.18C218.783 25.54 218.039 26.044 217.487 26.692C216.935 27.316 216.659 28.048 216.659 28.888C216.659 29.56 216.815 30.148 217.127 30.652C217.439 31.132 217.895 31.54 218.495 31.876C219.095 32.212 219.839 32.512 220.727 32.776C221.639 33.016 222.647 33.232 223.751 33.424C224.999 33.664 226.175 33.952 227.279 34.288C228.383 34.624 229.355 35.044 230.195 35.548C231.059 36.052 231.719 36.7 232.175 37.492C232.655 38.26 232.895 39.196 232.895 40.3C232.895 41.788 232.475 43.108 231.635 44.26C230.819 45.388 229.667 46.276 228.179 46.924C226.691 47.548 224.939 47.86 222.923 47.86Z" fill="#A40DEE"/>
<path d="M239.03 47.5V22.3H241.838V44.764H255.95V47.5H239.03ZM261.014 47.5V44.764H266.09V25.036H261.014V22.3H273.974V25.036H268.898V44.764H273.974V47.5H261.014ZM281.309 47.5V22.3H292.901C294.557 22.3 295.961 22.552 297.113 23.056C298.289 23.56 299.201 24.292 299.849 25.252C300.497 26.188 300.821 27.316 300.821 28.636C300.821 30.004 300.401 31.192 299.561 32.2C298.721 33.184 297.557 33.868 296.069 34.252L296.105 33.604C297.257 33.82 298.277 34.216 299.165 34.792C300.077 35.368 300.797 36.112 301.325 37.024C301.877 37.912 302.153 38.932 302.153 40.084C302.153 41.308 301.913 42.388 301.433 43.324C300.977 44.26 300.353 45.04 299.561 45.664C298.793 46.264 297.893 46.72 296.861 47.032C295.829 47.344 294.713 47.5 293.513 47.5H281.309ZM284.117 44.764H293.333C294.485 44.764 295.493 44.596 296.357 44.26C297.221 43.9 297.905 43.372 298.409 42.676C298.937 41.98 299.201 41.152 299.201 40.192C299.201 39.232 298.925 38.428 298.373 37.78C297.845 37.132 297.125 36.64 296.213 36.304C295.301 35.968 294.281 35.8 293.153 35.8H284.117V44.764ZM284.117 33.064H293.045C293.981 33.064 294.809 32.896 295.529 32.56C296.273 32.2 296.849 31.72 297.257 31.12C297.689 30.52 297.905 29.824 297.905 29.032C297.905 27.76 297.437 26.776 296.501 26.08C295.565 25.384 294.305 25.036 292.721 25.036H284.117V33.064Z" fill="#0074EE"/>
</svg>
