<svg width="20" height="19" viewBox="0 0 20 19" fill="none" xmlns="http://www.w3.org/2000/svg">
<path id="Star 5" d="M9.05248 0.808125C9.35854 -0.0989281 10.6415 -0.0989277 10.9475 0.808126L12.5381 5.52215C12.674 5.92478 13.0495 6.19759 13.4744 6.20237L18.4492 6.25841C19.4064 6.2692 19.8029 7.48932 19.0348 8.06069L15.043 11.0302C14.7021 11.2838 14.5586 11.7252 14.6854 12.1308L16.1694 16.8794C16.455 17.7932 15.417 18.5472 14.6363 17.9933L10.5786 15.1145C10.2321 14.8686 9.76794 14.8686 9.42136 15.1145L5.36371 17.9933C4.58295 18.5472 3.54505 17.7932 3.8306 16.8794L5.31461 12.1308C5.44136 11.7252 5.29794 11.2838 4.95699 11.0302L0.96521 8.06069C0.197128 7.48932 0.593571 6.2692 1.55081 6.25841L6.52563 6.20237C6.95054 6.19759 7.32603 5.92478 7.46188 5.52215L9.05248 0.808125Z" fill="#D9D9D9"/>
</svg>
