<svg width="70" height="70" viewBox="0 0 70 70" fill="none" xmlns="http://www.w3.org/2000/svg">
<rect width="70" height="70" fill="#D9D9D9" fill-opacity="0.05"/>
<path d="M33.9072 70C20.1734 70 9 58.8184 9 45.0742V24.9254C9 11.1816 20.1734 0 33.9072 0C47.6411 0 58.8144 11.1816 58.8144 24.9254V45.0742C58.8144 45.858 58.1797 46.4935 57.3969 46.4935C56.614 46.4935 55.9793 45.858 55.9793 45.0742V24.9254C55.9793 12.7466 46.0778 2.83849 33.9072 2.83849C21.7366 2.83849 11.8352 12.7466 11.8352 24.9254V45.0742C11.8352 57.253 21.7366 67.1615 33.9072 67.1615C34.69 67.1615 35.3248 67.797 35.3248 68.5808C35.3248 69.3645 34.69 70 33.9072 70Z" fill="#0074EE"/>
<path d="M57.3969 48.462C59.387 48.462 61 46.847 61 44.8547C61 42.8624 59.387 41.2474 57.3969 41.2474C55.4069 41.2474 53.7938 42.8624 53.7938 44.8547C53.7938 46.847 55.4069 48.462 57.3969 48.462Z" fill="#0074EE"/>
<path d="M33.9074 61.8423C24.4244 61.8423 16.7089 54.121 16.7089 44.6305V25.3692C16.7089 24.5855 17.3436 23.95 18.1265 23.95C18.9093 23.95 19.544 24.5855 19.544 25.3692V44.6305C19.544 52.556 25.9876 59.0038 33.9074 59.0038C41.8273 59.0038 48.2708 52.556 48.2708 44.6305V25.3692C48.2708 17.4438 41.8273 10.996 33.9074 10.996C33.1246 10.996 32.4898 10.3609 32.4898 9.57675C32.4898 8.79302 33.1246 8.15751 33.9074 8.15751C43.3905 8.15751 51.106 15.8788 51.106 25.3692V44.6305C51.106 54.121 43.3905 61.8423 33.9074 61.8423Z" fill="#A40DEE"/>
<path d="M18.1263 28.7525C20.1163 28.7525 21.7294 27.1376 21.7294 25.1452C21.7294 23.1529 20.1163 21.5379 18.1263 21.5379C16.1363 21.5379 14.5232 23.1529 14.5232 25.1452C14.5232 27.1376 16.1363 28.7525 18.1263 28.7525Z" fill="#A40DEE"/>
<path d="M41.882 33.8199H34.0088V36.6584H41.882C42.6648 36.6584 43.2996 36.0229 43.2996 35.2391C43.2996 34.4554 42.6648 33.8199 41.882 33.8199Z" fill="#00DED3"/>
<path d="M33.9074 52.9619C28.7286 52.9619 24.5153 48.7452 24.5153 43.562V26.4376C24.5153 21.2548 28.7286 17.0382 33.9074 17.0382C34.6902 17.0382 35.325 17.6733 35.325 18.4574C35.325 19.2411 34.6902 19.8767 33.9074 19.8767C30.2918 19.8767 27.3504 22.8199 27.3504 26.4376V43.562C27.3504 47.1798 30.2918 50.1234 33.9074 50.1234C37.523 50.1234 40.4644 47.1798 40.4644 43.562V35.2394C40.4644 34.4553 41.0992 33.8199 41.882 33.8199C42.6648 33.8199 43.2996 34.4554 43.2996 35.2391L43.2996 43.562C43.2996 48.7452 39.0862 52.9619 33.9074 52.9619Z" fill="#00DED3"/>
<path d="M33.9074 22.0645C35.8975 22.0645 37.5105 20.4495 37.5105 18.4572C37.5105 16.4649 35.8975 14.8499 33.9074 14.8499C31.9174 14.8499 30.3043 16.4649 30.3043 18.4572C30.3043 20.4495 31.9174 22.0645 33.9074 22.0645Z" fill="#00DED3"/>
<path d="M33.9074 38.6072C35.8975 38.6072 37.5105 36.9922 37.5105 34.9999C37.5105 33.0075 35.8975 31.3926 33.9074 31.3926C31.9174 31.3926 30.3043 33.0075 30.3043 34.9999C30.3043 36.9922 31.9174 38.6072 33.9074 38.6072Z" fill="#00DED3"/>
</svg>
